<?xml version="1.0" standalone="no"?>
<!DOCTYPE svg PUBLIC "-//W3C//DTD SVG 20010904//EN"
 "http://www.w3.org/TR/2001/REC-SVG-20010904/DTD/svg10.dtd">
<svg version="1.0" xmlns="http://www.w3.org/2000/svg"
 width="5209.000000pt" height="5209.000000pt" viewBox="0 0 5209.000000 5209.000000"
 preserveAspectRatio="xMidYMid meet">

<g transform="translate(0.000000,5209.000000) scale(0.100000,-0.100000)"
fill="#000000" stroke="none">
<path d="M30040 45104 c-14 -2 -65 -9 -115 -15 -214 -27 -470 -108 -704 -225
-678 -336 -1203 -992 -1377 -1719 -9 -39 -91 -531 -183 -1095 l-167 -1025
-1249 -6 c-1213 -5 -1253 -6 -1350 -26 -432 -90 -792 -276 -1114 -578 l-101
-95 -1886 0 c-1851 0 -1888 0 -1985 -20 -511 -104 -936 -520 -1068 -1045 -5
-22 -55 -321 -111 -665 -55 -344 -120 -746 -145 -895 -72 -444 -257 -1585
-320 -1975 -37 -233 -66 -413 -134 -830 -22 -135 -61 -373 -86 -530 -25 -157
-61 -379 -80 -495 -19 -115 -53 -322 -75 -460 -23 -137 -68 -416 -100 -620
-33 -203 -87 -536 -120 -740 -33 -203 -103 -635 -156 -960 -52 -324 -142 -880
-200 -1235 -57 -355 -113 -699 -123 -765 -11 -66 -56 -343 -100 -615 -99 -611
-97 -596 -81 -615 16 -19 54 -19 69 -1 6 7 21 69 32 137 31 190 247 1524 274
1694 32 198 183 1130 245 1515 28 168 126 778 220 1355 93 578 190 1174 214
1325 25 151 145 889 266 1640 230 1419 271 1674 320 1975 16 99 86 529 155
955 78 483 135 807 151 860 134 439 497 782 944 893 85 21 90 21 1943 24
l1858 4 -55 -68 c-160 -199 -305 -466 -386 -711 -53 -160 -71 -245 -134 -635
l-41 -257 -1031 0 c-813 0 -1033 -2 -1046 -12 -13 -10 -26 -70 -52 -228 -19
-118 -96 -593 -171 -1055 -75 -462 -153 -948 -175 -1080 -47 -285 -431 -2654
-465 -2870 -39 -245 -109 -679 -195 -1203 -44 -272 -80 -506 -80 -521 0 -15 5
-32 12 -39 16 -16 53 -15 66 1 6 7 32 141 57 297 25 157 56 353 70 435 14 83
43 263 65 400 22 138 61 374 85 525 55 336 141 867 190 1170 20 124 49 306 65
405 16 99 48 293 70 430 122 751 193 1189 230 1420 34 208 133 818 232 1432
l63 393 997 0 998 0 -5 -27 c-113 -625 -115 -769 -15 -978 90 -186 262 -322
465 -370 64 -14 533 -16 5680 -13 l5610 3 85 29 c271 91 478 265 613 516 66
125 90 212 143 543 l48 297 863 0 c475 0 863 -2 863 -5 0 -7 -92 -581 -160
-995 -34 -206 -72 -442 -85 -525 -37 -231 -74 -460 -200 -1235 -120 -743 -277
-1711 -321 -1980 -13 -85 -45 -279 -69 -430 -113 -696 -168 -1031 -200 -1230
-38 -240 -135 -838 -190 -1175 -20 -120 -112 -692 -206 -1270 -228 -1412 -241
-1491 -314 -1940 -35 -214 -92 -565 -126 -780 -34 -214 -63 -391 -64 -393 -1
-1 -302 -60 -668 -131 l-666 -129 -273 -130 c-150 -72 -345 -165 -433 -207
-88 -43 -196 -94 -240 -115 -176 -83 -249 -118 -955 -455 -635 -303 -666 -318
-880 -420 -107 -51 -258 -123 -335 -160 -77 -37 -180 -86 -230 -110 -49 -23
-243 -115 -430 -205 -187 -89 -434 -207 -550 -262 -115 -55 -406 -194 -645
-308 -549 -262 -840 -401 -955 -455 -49 -24 -265 -127 -479 -229 l-389 -186
-2337 0 -2337 0 -7 78 c-4 42 -22 203 -41 357 -19 154 -37 317 -41 362 -6 79
-6 81 16 85 45 6 49 31 29 173 -10 72 -29 206 -42 298 l-23 168 26 -6 c69 -18
278 -56 385 -69 217 -28 357 -35 630 -31 466 6 865 69 1340 209 l120 36 2478
0 2477 0 10 23 c5 12 21 96 35 187 47 299 85 535 91 562 4 19 -1 33 -15 47
l-21 21 -1686 0 c-928 0 -1689 1 -1690 3 -2 2 60 49 139 105 202 145 312 234
315 258 4 26 -6 34 -178 154 l-144 100 3310 0 c2633 0 3314 3 3327 12 11 9 21
43 30 103 8 50 36 224 63 388 36 223 46 302 38 315 -11 16 -256 17 -3934 20
l-3922 2 6 208 c13 399 26 878 26 953 l0 76 338 128 c345 131 461 183 567 254
l60 41 1937 0 c1835 0 1938 1 1947 18 7 13 66 362 127 753 11 75 163 69 -1773
69 -1087 0 -1733 4 -1733 9 0 19 -68 61 -112 69 -57 11 -136 -8 -201 -48 l-48
-30 -311 0 c-305 0 -310 0 -341 23 -24 16 -46 22 -89 22 -43 0 -64 -5 -87 -22
l-30 -23 -2066 0 c-2052 0 -2065 0 -2085 -20 -24 -24 -25 -32 -2 -59 l17 -21
2020 -3 2020 -2 -120 -125 c-248 -257 -312 -328 -379 -423 l-68 -97 -1519 0
c-1491 0 -1518 0 -1529 -19 -14 -27 -13 -37 6 -55 14 -14 164 -16 1505 -16
l1489 0 -36 -72 c-59 -117 -95 -220 -229 -658 -70 -228 -131 -418 -134 -422
-4 -4 -45 19 -91 52 -47 33 -92 60 -101 60 -9 0 -52 -42 -95 -92 -136 -160
-253 -289 -373 -410 l-116 -118 -815 0 -815 0 -155 138 c-86 76 -255 235 -376
353 -232 226 -297 274 -445 333 -61 23 -635 166 -737 182 l-42 7 6 46 c3 25
18 147 32 270 l27 224 70 17 c98 22 158 54 204 107 63 71 76 123 75 293 0 135
-3 154 -38 285 -21 77 -40 149 -42 160 -4 16 16 33 93 85 272 181 413 392 413
620 0 378 -378 701 -907 774 -169 24 -262 27 -384 16 -185 -17 -337 -61 -440
-126 -36 -23 -40 -23 -46 -7 -53 155 -112 251 -209 344 -110 105 -237 179
-391 226 -76 23 -106 27 -218 27 -117 0 -138 -3 -210 -28 -153 -53 -297 -171
-357 -294 -30 -61 -33 -74 -33 -162 0 -87 3 -101 32 -160 62 -126 181 -247
365 -370 l86 -58 -66 -12 c-259 -48 -493 -237 -626 -508 -58 -116 -70 -160
-70 -257 0 -77 4 -99 27 -148 40 -88 131 -176 294 -283 184 -122 254 -183 406
-356 158 -181 292 -310 385 -372 168 -111 353 -157 502 -125 28 6 53 9 55 7 3
-2 -6 -42 -18 -88 l-23 -84 -145 -18 c-157 -20 -640 -108 -894 -164 -1349
-297 -2371 -753 -2969 -1325 -191 -183 -350 -395 -452 -604 -80 -165 -118
-295 -149 -500 -11 -73 -14 -408 -4 -520 54 -655 300 -1557 679 -2499 90 -223
113 -262 150 -248 10 4 144 102 297 218 153 116 364 277 469 357 l191 145 289
-360 c159 -199 295 -369 302 -380 11 -16 9 -37 -18 -146 -41 -166 -92 -424
-125 -637 -23 -146 -26 -189 -21 -305 11 -276 68 -486 166 -615 l48 -64 -28
-123 c-164 -711 -304 -1768 -384 -2913 -13 -177 -25 -376 -31 -485 -3 -63 -7
-140 -10 -170 -2 -30 -7 -122 -10 -205 -3 -82 -7 -190 -10 -240 -13 -266 -32
-925 -37 -1290 -8 -689 4 -2575 17 -2618 2 -7 6 -136 10 -287 3 -151 8 -315
10 -365 2 -49 7 -155 10 -235 15 -398 33 -731 38 -737 3 -2 36 -8 73 -14 38
-5 80 -12 93 -15 l24 -5 -7 -222 c-12 -396 -17 -551 -21 -602 -2 -27 -4 -89
-4 -137 l-1 -88 -33 0 c-48 0 -70 -20 -147 -137 -162 -245 -338 -664 -496
-1178 -85 -277 -81 -364 24 -470 91 -93 241 -120 667 -119 343 0 584 24 685
70 84 37 164 124 186 202 16 53 16 64 0 162 -36 222 -55 370 -66 505 -12 153
-14 502 -4 745 6 144 5 157 -13 179 -12 15 -35 26 -59 30 l-40 6 73 514 c41
283 75 516 77 518 1 2 61 10 132 18 71 8 152 20 180 25 l51 11 7 192 c24 717
170 1691 456 3052 117 559 373 1634 546 2295 107 407 216 817 220 830 3 8 37
-102 75 -245 253 -945 615 -2136 1082 -3560 343 -1044 899 -2663 920 -2676 5
-4 57 -14 116 -24 l107 -17 122 -467 c132 -501 145 -558 161 -696 8 -75 15
-206 12 -251 -1 -7 -12 -15 -25 -18 -117 -29 -217 -320 -245 -716 -10 -136 -5
-455 8 -499 15 -49 56 -98 104 -124 l42 -22 1100 1 c1092 0 1743 13 1815 36
86 26 140 99 140 188 0 95 -82 221 -246 380 -206 199 -469 372 -889 585 -267
135 -377 180 -497 203 l-90 17 -43 55 c-134 174 -259 417 -329 640 -26 80
-189 752 -184 755 2 1 33 10 71 19 37 10 69 22 72 26 2 4 -7 90 -21 191 -199
1463 -411 3303 -459 3984 -3 44 -8 109 -10 145 -7 94 -14 232 -21 415 -3 88
-7 167 -9 175 -2 8 -6 65 -9 125 -4 61 -9 117 -11 125 -2 8 -6 51 -10 95 -19
238 -131 1187 -200 1700 -3 22 -17 123 -30 225 -14 102 -30 217 -35 255 -49
367 -228 1631 -260 1831 -6 38 -13 81 -15 96 -3 21 0 27 22 33 39 9 124 101
175 190 48 82 114 231 163 368 l28 77 2388 0 2389 0 0 -212 c0 -117 4 -548 10
-958 5 -410 12 -959 15 -1220 5 -471 11 -933 20 -1685 3 -214 7 -613 10 -885
3 -272 8 -645 11 -827 l6 -333 -2072 0 c-1409 0 -2078 -3 -2091 -10 -26 -14
-26 -66 0 -80 13 -7 682 -10 2090 -10 l2071 0 0 -122 c0 -68 2 -233 5 -368 2
-135 7 -461 10 -725 3 -264 8 -720 11 -1012 l7 -533 -1820 0 c-1401 0 -1822
-3 -1831 -12 -7 -7 -12 -21 -12 -33 0 -12 5 -26 12 -33 9 -9 429 -12 1829 -12
l1817 0 4 -73 c3 -39 5 -225 6 -412 3 -417 10 -454 106 -549 86 -86 174 -110
381 -102 77 3 572 8 1100 11 528 3 1079 8 1225 10 146 2 704 7 1241 11 939 6
978 6 1030 -12 52 -18 114 -19 1679 -19 1590 0 1626 0 1670 20 41 17 77 20
375 25 220 3 337 9 350 16 14 9 229 14 745 18 399 3 921 8 1160 11 239 3 795
7 1235 11 857 6 860 6 963 58 60 30 153 129 178 189 15 36 28 49 73 73 31 16
133 70 226 120 94 50 220 117 280 149 61 32 227 121 370 198 143 76 296 158
340 182 1180 629 1591 850 1598 859 7 10 5 280 -8 841 -3 121 -14 643 -25
1160 -11 517 -22 1037 -25 1155 -2 118 -7 330 -10 470 -3 140 -7 356 -10 480
-3 124 -10 437 -15 695 -9 445 -14 676 -25 1125 -3 107 -7 319 -10 470 -7 336
-23 1126 -30 1425 -2 121 -7 333 -10 470 -3 138 -8 338 -10 445 -3 107 -7 323
-10 480 -3 157 -10 470 -15 695 -5 226 -10 457 -10 515 l1 105 67 30 c37 16
145 67 240 112 96 46 175 83 177 83 1 0 58 26 126 59 68 32 150 71 182 86 96
45 142 138 117 238 -24 92 15 68 -1130 709 -74 42 -292 165 -485 273 -421 238
-1964 1106 -2230 1255 -104 59 -332 187 -505 285 -173 98 -443 250 -600 338
-157 88 -350 197 -430 242 -80 45 -226 128 -326 183 l-180 102 52 322 c58 357
293 1797 354 2173 22 132 55 337 74 455 20 118 58 355 86 525 28 171 77 474
110 675 33 201 122 750 199 1220 77 470 196 1204 266 1630 69 426 155 951 190
1165 64 394 164 1005 280 1720 146 898 239 1467 311 1900 86 522 98 654 70
811 -42 241 -172 459 -358 599 -78 59 -219 127 -323 157 l-80 23 -2082 2
-2082 3 -62 83 c-260 345 -633 556 -1074 607 -57 6 -542 10 -1312 10 -1175 0
-1223 1 -1223 18 0 10 4 43 10 73 5 30 21 124 34 209 14 85 81 502 150 925 68
424 130 815 136 870 12 114 12 300 -2 425 -79 736 -566 1323 -1250 1505 -186
49 -256 57 -548 60 -151 2 -286 1 -300 -1z m355 -99 c377 -30 737 -196 1000
-459 130 -131 212 -244 294 -404 123 -242 178 -459 188 -742 3 -108 1 -215 -6
-280 -10 -90 -86 -573 -261 -1645 -22 -132 -73 -451 -115 -710 -194 -1204
-182 -1141 -242 -1261 -96 -192 -282 -342 -487 -394 -77 -20 -114 -20 -1517
-20 -1011 0 -1454 3 -1491 11 -228 48 -388 250 -388 492 0 51 88 628 145 957
8 47 24 141 34 210 18 113 129 799 216 1335 19 116 62 379 95 585 63 388 86
499 141 660 221 657 761 1236 1404 1505 236 99 471 153 710 164 148 6 153 6
280 -4z m3638 -4089 c602 -39 1111 -459 1272 -1051 49 -179 70 -445 50 -620
-19 -165 -218 -1359 -236 -1420 -59 -197 -201 -391 -369 -505 -82 -56 -211
-115 -296 -137 -66 -17 -340 -18 -5529 -18 l-5460 0 -78 28 c-252 89 -401 291
-414 562 -5 92 4 153 102 760 59 363 119 710 135 770 187 743 819 1387 1545
1576 230 60 181 58 1507 59 1155 0 1216 -1 1212 -17 -2 -10 -29 -175 -59 -368
-31 -192 -75 -460 -97 -595 -47 -279 -53 -402 -24 -510 55 -204 209 -358 416
-417 62 -17 142 -18 1620 -18 1487 0 1558 1 1625 19 293 78 536 314 614 596
11 39 52 270 91 513 117 722 128 790 138 796 13 8 2115 4 2235 -3z m5052 -714
c247 -71 430 -218 540 -437 61 -122 86 -223 92 -370 6 -144 23 -23 -232 -1595
-76 -467 -126 -771 -281 -1730 -74 -459 -152 -943 -174 -1075 -21 -132 -73
-451 -115 -710 -42 -258 -89 -551 -105 -650 -80 -490 -497 -3064 -525 -3240
-13 -82 -69 -429 -125 -770 -55 -341 -107 -660 -115 -710 -12 -79 -142 -884
-225 -1390 -16 -99 -43 -268 -61 -377 l-32 -196 -106 -20 c-58 -11 -214 -41
-346 -67 -216 -41 -390 -75 -1060 -205 -110 -21 -308 -59 -440 -85 -132 -25
-250 -48 -262 -50 -16 -4 -23 -1 -23 9 0 7 20 137 44 287 24 151 74 459 110
684 36 226 73 448 81 495 8 47 24 141 34 210 11 69 36 222 55 340 19 118 82
510 140 870 58 360 110 680 116 710 5 30 59 363 120 740 61 377 137 849 170
1050 60 370 275 1695 310 1915 11 66 40 244 64 395 25 151 68 417 96 590 28
173 64 398 81 500 28 172 157 972 250 1545 22 138 62 385 89 550 57 351 144
890 160 990 6 39 13 80 16 92 4 14 -2 29 -15 42 -21 21 -22 21 -912 21 l-891
0 6 28 c25 117 97 602 106 707 23 285 -32 596 -151 853 l-38 83 1737 -4 1737
-3 80 -22z m-19899 -9001 c195 -67 367 -208 441 -361 22 -47 48 -109 58 -137
l17 -53 -56 -77 c-121 -170 -143 -196 -199 -233 -66 -45 -149 -66 -298 -75
-95 -7 -97 -6 -165 28 -222 112 -445 303 -506 433 -58 124 -41 223 58 333 157
175 401 228 650 142z m1489 -446 c369 -66 661 -266 752 -515 78 -213 -8 -441
-235 -622 -102 -81 -182 -132 -192 -121 -4 4 -24 49 -45 98 -60 150 -225 474
-246 485 -15 9 -44 1 -142 -38 -172 -69 -347 -117 -533 -146 -108 -17 -148
-32 -196 -75 -53 -46 -80 -111 -85 -206 -5 -75 6 -143 43 -272 5 -19 0 -25
-35 -39 -104 -41 -137 -163 -80 -294 36 -82 122 -149 192 -150 15 0 30 -6 33
-14 5 -14 -110 -476 -126 -506 -24 -45 -211 -65 -324 -35 -144 38 -317 160
-464 325 -277 312 -359 387 -552 510 -294 186 -338 338 -180 613 88 155 206
270 353 343 106 54 174 65 447 74 259 9 303 16 404 67 71 36 135 100 217 220
41 58 92 125 115 148 79 79 230 140 406 165 90 13 367 4 473 -15z m60 -915
c132 -264 240 -546 281 -735 24 -112 24 -276 1 -337 -40 -103 -153 -158 -322
-159 -104 0 -163 12 -251 51 -117 52 -223 137 -326 259 l-46 55 -52 -12 c-159
-37 -255 19 -267 156 -5 52 -3 59 21 81 17 16 41 25 75 29 82 8 86 24 36 162
-28 79 -43 209 -31 274 8 40 46 90 85 110 14 8 84 24 155 36 154 26 341 76
462 124 49 19 95 35 101 35 7 1 42 -57 78 -129z m6376 -419 c16 -16 29 -40 29
-53 0 -28 -232 -389 -314 -488 -100 -122 -241 -232 -391 -306 -38 -19 -229
-94 -424 -168 -195 -74 -358 -139 -363 -144 -12 -12 -16 -117 -34 -922 -4
-151 -9 -301 -13 -332 l-6 -57 -321 224 -321 225 137 446 c76 245 155 488 176
541 46 117 128 264 213 384 61 85 561 618 599 638 23 12 58 -3 72 -30 10 -18
1 -43 -70 -189 -102 -209 -102 -214 -5 -251 90 -34 141 -41 212 -28 113 21
155 50 348 239 191 187 250 235 336 275 72 33 103 32 140 -4z m-537 -193 c-71
-73 -141 -143 -156 -155 -66 -57 -183 -85 -263 -63 -25 7 -45 14 -45 16 0 2
32 69 70 150 39 80 70 155 70 165 0 18 11 19 227 19 l226 0 -129 -132z m4026
117 c0 -15 -48 -315 -80 -505 -11 -63 -20 -118 -20 -123 0 -4 -830 -7 -1845
-7 -1015 0 -1845 4 -1845 8 0 4 16 24 36 43 60 57 125 145 242 327 127 196
142 223 142 252 l0 20 1685 0 c1473 0 1685 -2 1685 -15z m-10365 -668 c129
-96 252 -148 384 -163 58 -6 60 -7 56 -33 -3 -14 -23 -179 -46 -366 -27 -231
-37 -346 -31 -360 8 -17 73 -40 333 -119 178 -55 328 -102 332 -106 9 -8 -156
-87 -272 -130 -161 -59 -394 -113 -555 -127 -142 -14 -432 -8 -551 11 -234 37
-458 105 -664 202 -63 30 -112 56 -110 58 2 2 144 63 314 136 171 73 313 135
317 139 4 3 66 236 139 516 73 281 137 516 142 523 8 10 24 -3 71 -54 34 -37
97 -94 141 -127z m-564 -769 c-6 -17 -82 -54 -360 -172 -305 -131 -353 -154
-358 -175 -9 -35 3 -48 87 -93 261 -142 581 -245 875 -284 141 -19 427 -19
576 0 304 38 646 149 877 284 63 38 72 46 72 72 0 16 -6 32 -12 37 -7 4 -175
58 -373 120 l-360 111 2 32 c0 17 3 33 5 35 4 4 158 -30 517 -115 303 -71 390
-121 629 -358 485 -481 906 -819 1207 -967 220 -109 326 -112 518 -14 241 122
632 478 1014 923 52 61 98 112 102 114 5 1 262 -174 572 -391 1429 -997 1719
-1200 1717 -1202 -145 -120 -607 -433 -839 -568 -615 -358 -1243 -600 -1851
-711 -158 -29 -328 -53 -443 -61 -44 -3 -98 -8 -119 -11 -50 -6 -517 -6 -559
0 -18 3 -72 8 -122 11 -138 9 -564 81 -581 98 -4 4 -50 461 -59 582 -3 44 -7
103 -10 130 -5 55 -10 134 -26 425 -5 107 -12 203 -15 212 -3 10 -17 21 -31
24 -41 11 -66 -27 -59 -85 3 -25 8 -104 11 -176 3 -71 8 -155 10 -185 2 -30 7
-100 10 -155 9 -148 43 -534 59 -660 7 -60 10 -117 6 -125 -4 -8 -6 -26 -5
-40 2 -14 6 -97 9 -185 4 -88 9 -182 11 -210 2 -27 7 -108 10 -180 8 -165 19
-282 55 -575 16 -129 36 -309 44 -400 9 -91 18 -185 21 -210 2 -25 7 -88 11
-140 3 -52 9 -147 14 -210 14 -193 5 -789 -14 -905 -27 -167 -65 -329 -132
-562 -119 -416 -240 -707 -333 -803 l-48 -51 -69 5 c-100 8 -619 38 -2229 131
-236 14 -466 27 -510 29 -44 3 -125 8 -180 11 -55 3 -131 8 -170 10 -38 3
-230 14 -425 25 -195 11 -391 22 -435 25 -44 2 -125 7 -180 10 -132 8 -168 19
-217 63 -113 102 -173 298 -185 597 -6 169 -2 202 52 510 25 137 94 456 101
464 2 2 33 -28 70 -68 76 -81 164 -139 274 -176 186 -64 333 -38 549 96 143
89 287 156 398 186 85 22 122 26 273 28 202 3 249 13 387 80 204 100 278 242
208 394 -37 78 -144 180 -237 225 -163 78 -425 131 -603 123 -202 -10 -311
-52 -547 -209 -98 -65 -180 -118 -182 -118 -2 0 -70 104 -151 230 -145 228
-147 231 -137 268 5 20 35 127 65 237 70 256 144 570 201 855 47 233 70 458
61 591 -2 35 -7 109 -10 164 -8 132 -30 317 -60 496 -14 81 -25 151 -25 157 0
6 15 20 34 31 19 12 37 29 40 38 8 20 -19 63 -41 63 -18 0 -467 -238 -528
-281 -177 -122 -273 -359 -232 -569 10 -48 90 -264 222 -595 114 -286 210
-530 212 -541 4 -17 -12 -34 -79 -86 -302 -234 -1790 -1359 -1793 -1356 -9 9
-178 449 -248 643 -269 753 -435 1419 -486 1950 -13 134 -13 407 -1 520 21
193 68 348 156 522 323 633 1098 1160 2284 1553 578 192 1287 357 1935 449
106 15 116 14 106 -11z m18563 -989 c22 -6 269 -140 550 -298 529 -298 1487
-837 2586 -1456 957 -539 1359 -765 2105 -1184 374 -210 692 -396 708 -412 35
-38 37 -96 5 -133 -14 -15 -157 -88 -363 -184 -187 -88 -592 -278 -900 -422
-308 -145 -598 -281 -645 -303 -47 -21 -175 -83 -285 -137 -110 -54 -297 -144
-415 -200 -118 -57 -267 -128 -330 -159 -111 -54 -118 -56 -195 -56 l-80 0
-920 424 c-1280 589 -1407 647 -2140 983 -264 121 -514 236 -555 255 -41 19
-262 120 -490 225 -228 105 -525 241 -660 303 -338 156 -1816 834 -1975 907
-71 33 -139 60 -150 60 -11 0 -441 -178 -955 -397 -514 -218 -1401 -595 -1970
-837 -569 -242 -1305 -555 -1635 -695 -1352 -574 -1604 -681 -2125 -903 -299
-127 -562 -233 -585 -237 -25 -3 -54 0 -77 10 -56 24 -468 317 -468 334 0 15
81 55 675 338 171 81 366 175 435 208 69 32 170 81 225 107 162 77 275 131
975 465 366 175 710 339 765 365 114 54 697 333 885 422 69 33 166 79 215 103
88 41 195 93 440 210 66 32 156 74 200 95 44 21 143 68 220 105 77 37 376 180
665 317 289 138 586 280 660 315 142 68 674 322 845 403 55 26 177 85 270 130
246 118 360 170 375 170 13 0 253 46 760 145 124 24 320 62 435 84 338 65
1392 268 1610 311 110 21 378 73 595 115 217 42 436 84 485 94 106 22 175 25
229 10z m-14244 -64 c0 -2 -44 -41 -97 -87 -267 -231 -467 -340 -593 -322
-134 19 -341 133 -605 333 l-100 76 675 5 c611 5 720 4 720 -5z m9459 -42 c-4
-27 -26 -165 -49 -308 -22 -143 -44 -266 -48 -273 -6 -10 -665 -12 -3357 -12
l-3350 0 -105 72 c-58 40 -264 183 -457 318 l-350 245 3856 5 c2121 3 3859 4
3862 3 4 -2 3 -24 -2 -50z m-15419 -1463 c39 -267 51 -398 55 -600 4 -238 -1
-296 -55 -564 -70 -347 -114 -524 -121 -491 -3 17 -102 271 -219 565 -117 294
-219 560 -226 590 -44 178 25 374 170 487 25 19 116 73 203 119 l158 83 7 -27
c4 -15 17 -88 28 -162z m11930 40 c0 -19 -100 -633 -104 -638 -2 -1 -1041 -1
-2311 0 l-2308 3 149 60 c217 87 628 295 869 440 115 69 214 130 219 135 14
14 3486 14 3486 0z m4236 -406 c55 -25 392 -180 749 -344 358 -164 877 -403
1155 -530 278 -128 582 -267 675 -310 94 -43 451 -207 795 -365 344 -158 758
-348 920 -422 162 -75 331 -152 375 -172 44 -21 442 -204 884 -407 l804 -369
-7 -1870 c-6 -1706 -5 -1872 9 -1892 19 -27 42 -29 67 -6 17 15 18 87 18 1870
0 1019 2 1853 5 1853 3 0 69 -29 148 -64 169 -77 219 -91 296 -83 64 7 81 14
296 117 83 40 240 115 350 167 110 53 250 120 310 150 92 46 373 179 855 405
270 127 383 178 386 175 4 -4 12 -286 24 -857 6 -267 12 -577 15 -690 2 -113
7 -320 10 -460 3 -140 7 -363 10 -495 3 -132 10 -447 15 -700 17 -831 20 -958
25 -1155 3 -107 7 -314 10 -460 3 -146 10 -467 15 -715 5 -247 12 -565 15
-705 3 -140 7 -340 10 -445 3 -104 7 -314 10 -465 3 -151 7 -363 10 -470 3
-107 7 -323 10 -480 3 -157 8 -359 10 -450 2 -91 7 -320 10 -510 4 -190 8
-370 10 -400 2 -30 6 -260 10 -510 l6 -455 -367 -195 c-203 -107 -440 -234
-529 -281 -903 -484 -1857 -990 -1859 -988 -3 4 -8 239 -21 1064 -3 171 -7
447 -10 615 -3 168 -7 494 -10 725 -3 231 -7 515 -10 630 -3 116 -8 426 -11
690 -3 264 -7 530 -9 590 -2 61 -4 220 -4 355 -1 135 -4 312 -8 393 -5 133 -8
149 -26 158 -14 8 -27 8 -45 0 l-25 -12 7 -517 c6 -490 29 -1992 41 -2762 31
-1948 31 -1975 14 -2027 -17 -55 -65 -120 -112 -154 -77 -56 -86 -57 -698 -63
-1158 -13 -1536 -16 -2401 -22 l-887 -7 10 39 c10 43 10 283 -1 411 -8 102
-37 150 -113 188 -50 25 -55 25 -274 25 l-223 0 0 153 c0 83 -3 487 -5 897 -7
920 -25 4766 -25 5287 -1 426 -5 458 -65 550 -36 55 -98 103 -167 131 -40 16
-159 17 -1603 20 -1098 2 -1579 0 -1624 -8 -116 -20 -209 -88 -258 -189 l-28
-56 -6 -825 c-8 -937 -19 -4041 -19 -5192 l0 -768 -215 0 c-235 0 -263 -5
-318 -58 -61 -58 -65 -76 -69 -333 -2 -205 0 -239 15 -273 9 -22 16 -40 15
-41 -2 -2 -446 -5 -988 -9 -542 -3 -1138 -8 -1325 -11 -187 -3 -646 -6 -1020
-7 l-680 -3 -40 22 c-53 28 -89 68 -114 124 -20 44 -21 85 -40 1760 -11 943
-23 1896 -26 2119 -3 223 -7 605 -10 850 -3 245 -7 634 -10 865 -3 231 -7 605
-10 830 -3 226 -7 622 -10 880 -3 259 -7 623 -10 810 -3 187 -8 603 -11 925
-4 322 -10 826 -13 1120 -4 294 -7 695 -7 890 l1 354 180 77 c177 75 1911 812
3010 1279 308 131 724 308 925 393 201 85 817 347 1370 582 553 235 1077 458
1165 496 88 37 167 68 176 69 9 0 61 -21 115 -46z m-16336 -1535 c-61 -230
-81 -302 -84 -297 -14 16 -167 261 -169 268 -3 12 297 242 301 231 1 -5 -20
-96 -48 -202z m-244 -226 c48 -76 115 -181 149 -233 34 -52 119 -185 190 -295
142 -223 151 -235 175 -235 9 0 97 55 195 121 201 137 283 179 405 210 166 42
447 11 661 -72 73 -29 94 -43 161 -109 87 -86 107 -131 88 -199 -21 -79 -174
-181 -322 -216 -44 -10 -110 -15 -200 -14 -153 2 -262 -15 -396 -63 -108 -38
-143 -55 -310 -157 -75 -45 -162 -90 -199 -101 -147 -45 -306 -12 -454 96 -30
22 -180 200 -424 505 -370 460 -378 471 -359 489 31 30 535 410 544 410 5 0
48 -62 96 -137z m9343 -364 c-46 -23 -230 -111 -409 -195 -221 -105 -332 -163
-347 -182 -50 -60 -35 -137 38 -188 21 -14 39 -29 39 -33 0 -5 -3641 -4 -3646
2 -1 1 -5 76 -8 167 -4 91 -13 234 -19 318 l-12 152 2224 0 2225 0 -85 -41z
m-412 -780 c136 -96 179 -113 271 -107 53 4 94 16 197 60 72 31 131 55 131 54
1 0 4 -126 7 -278 l6 -278 -2276 0 -2275 0 6 38 c12 80 26 335 26 485 l0 107
1896 0 1896 0 115 -81z m613 -911 c1 -150 3 -297 5 -325 l4 -53 -2370 0
c-1608 0 -2369 3 -2369 10 0 6 16 63 34 128 37 124 97 359 116 455 l11 57
2285 0 2284 0 0 -272z m8427 -3110 c22 -14 48 -43 59 -65 21 -42 20 43 39
-4685 l8 -1988 -1648 0 -1648 0 8 3223 c4 1772 10 3272 14 3332 8 127 24 160
95 195 41 20 53 20 1537 18 l1495 -3 41 -27z m820 -6854 c46 -30 53 -66 53
-294 l0 -210 -34 -38 -34 -37 -2319 -3 c-1565 -2 -2330 0 -2354 7 -19 6 -46
22 -60 37 -24 26 -24 26 -24 254 0 216 1 230 21 257 11 15 34 33 51 38 20 7
825 9 2353 8 2104 -3 2325 -4 2347 -19z m-18599 -559 c121 0 192 -4 192 -10 2
-40 -156 -1101 -162 -1092 -4 7 -8 23 -8 37 0 38 -33 85 -74 104 -31 14 -55
16 -173 10 -154 -7 -182 -17 -221 -75 l-23 -34 5 60 c3 33 8 152 11 265 7 259
15 485 20 575 2 39 4 94 5 123 l0 52 118 -7 c64 -5 204 -8 310 -8z m5052 -62
c0 -5 16 -73 35 -153 19 -80 56 -233 81 -340 26 -107 64 -247 85 -310 50 -145
168 -386 253 -512 54 -80 62 -98 48 -102 -9 -2 -93 -7 -187 -11 -93 -3 -184
-11 -201 -16 -49 -15 -74 -50 -83 -112 -8 -63 -24 -87 -55 -87 -12 0 -116 38
-231 84 l-210 84 -2 63 c-5 119 -33 344 -57 449 -13 58 -72 286 -130 507 -58
220 -106 403 -106 405 0 1 71 2 157 1 180 -1 312 9 463 36 125 22 140 23 140
14z m-5133 -995 c6 -7 13 -44 16 -83 4 -59 8 -72 31 -92 17 -14 40 -23 62 -23
28 0 43 9 84 53 l49 52 -2 -365 c-2 -454 9 -615 64 -934 12 -66 19 -139 16
-163 -6 -54 -45 -106 -109 -146 -45 -28 -86 -36 -308 -62 -264 -30 -599 -24
-837 16 -112 19 -185 98 -185 198 1 46 67 280 144 506 114 337 275 696 394
879 l58 89 9 -34 c15 -64 83 -98 138 -68 11 6 38 48 59 94 25 53 45 85 57 87
10 2 70 5 134 7 86 2 118 -1 126 -11z m5824 -528 c109 -19 187 -48 394 -149
606 -295 1002 -581 1155 -836 44 -74 46 -123 8 -162 -37 -36 -81 -41 -508 -48
-195 -4 -361 -9 -369 -11 -7 -2 -465 -4 -1018 -4 -784 0 -1011 3 -1031 12 -14
7 -35 26 -46 41 -20 27 -21 40 -21 285 0 153 6 293 13 347 40 283 119 495 183
495 10 0 127 -43 260 -96 212 -84 246 -95 282 -90 77 13 127 69 127 144 0 22
6 44 13 50 26 22 461 39 558 22z"/>
<path d="M29982 44129 c-90 -11 -164 -35 -251 -79 -94 -47 -128 -72 -214 -158
-168 -165 -257 -384 -244 -602 19 -324 256 -550 578 -550 292 0 577 192 714
483 47 98 66 175 72 288 9 162 -36 306 -133 425 -52 62 -161 138 -237 163 -50
17 -196 43 -217 39 -3 0 -33 -4 -68 -9z m294 -138 c120 -56 221 -182 253 -316
17 -68 15 -213 -4 -288 -63 -246 -266 -458 -508 -528 -69 -21 -82 -22 -125
-10 -167 44 -303 183 -341 351 -16 67 -13 205 5 279 50 206 205 397 399 491
140 69 210 73 321 21z"/>
<path d="M34312 26133 c-7 -2 -17 -13 -22 -24 -19 -35 7 -59 133 -119 67 -32
320 -155 562 -275 242 -120 512 -252 600 -295 88 -43 336 -164 550 -270 215
-106 480 -236 590 -290 110 -54 362 -177 560 -275 198 -98 464 -228 590 -290
127 -62 385 -189 575 -282 190 -94 595 -293 900 -443 305 -150 710 -349 900
-443 190 -93 426 -209 525 -257 99 -48 359 -176 579 -284 219 -108 409 -196
421 -196 31 0 49 24 41 55 -5 21 -36 40 -189 114 -100 49 -472 231 -827 406
-355 175 -744 366 -865 425 -121 59 -364 178 -540 265 -176 87 -441 217 -590
290 -148 73 -414 203 -590 290 -176 87 -450 221 -610 300 -159 78 -549 270
-865 425 -316 155 -699 343 -850 418 -547 268 -802 393 -1174 576 -208 102
-381 186 -385 185 -3 0 -12 -3 -19 -6z"/>
<path d="M32788 23548 c-47 -13 -113 -69 -141 -122 l-22 -41 0 -630 0 -630 22
-42 c29 -53 84 -98 139 -112 61 -16 1013 -15 1065 0 55 17 108 65 135 123 l24
51 0 600 c0 330 -5 618 -10 639 -13 59 -59 117 -115 145 l-49 26 -506 2 c-311
1 -519 -2 -542 -9z m1052 -103 c15 -8 38 -27 49 -41 21 -26 21 -33 21 -641 0
-551 -2 -618 -16 -643 -37 -62 -22 -60 -584 -60 l-512 0 -39 39 -39 39 0 606
c0 669 -1 657 62 696 32 19 49 20 531 20 420 0 502 -2 527 -15z"/>
<path d="M34329 23553 c-56 -9 -131 -65 -163 -123 l-31 -55 0 -610 0 -610 28
-57 c31 -64 78 -104 145 -124 61 -19 968 -20 1040 -2 60 15 142 94 160 154 16
56 17 1190 1 1249 -18 63 -62 118 -121 150 l-53 30 -490 1 c-269 1 -502 -1
-516 -3z m1028 -119 c66 -49 63 -19 63 -677 1 -659 3 -637 -63 -677 -31 -19
-54 -20 -528 -20 l-496 0 -34 23 c-72 48 -70 23 -67 689 3 586 3 597 24 625
11 15 36 36 55 46 31 16 73 17 526 15 482 -3 492 -3 520 -24z"/>
<path d="M32725 21871 c-48 -22 -69 -44 -90 -94 -13 -31 -15 -125 -15 -696 0
-443 4 -669 11 -688 15 -40 48 -73 94 -94 37 -17 76 -19 585 -18 574 0 592 1
642 46 11 10 29 36 39 58 17 38 19 81 19 698 0 570 -2 663 -15 694 -21 50 -42
72 -90 94 -37 17 -77 19 -590 19 -513 0 -553 -2 -590 -19z m1163 -104 l22 -23
0 -659 0 -658 -22 -24 -21 -23 -552 0 c-541 0 -552 0 -573 20 -12 12 -22 33
-22 48 0 15 0 312 0 661 0 592 1 635 17 654 10 11 26 22 35 26 9 3 259 5 556
3 l539 -2 21 -23z"/>
<path d="M34320 21881 c-45 -14 -84 -39 -117 -73 -65 -67 -63 -45 -63 -721 l0
-613 26 -52 c14 -29 42 -66 62 -82 72 -59 89 -61 628 -58 479 3 490 3 529 25
47 25 95 74 121 123 18 33 19 68 18 638 -1 442 -5 615 -14 647 -15 55 -69 119
-124 148 -41 22 -46 22 -541 24 -275 1 -511 -2 -525 -6z m1036 -111 c18 -12
42 -40 53 -64 21 -41 21 -56 21 -633 l0 -590 -23 -34 c-47 -70 -36 -69 -578
-69 l-486 0 -33 23 c-18 12 -43 35 -54 50 -21 28 -21 38 -24 615 -3 659 -4
650 66 697 l37 25 494 0 c479 0 495 -1 527 -20z"/>
<path d="M38815 19380 c-1382 -13 -2268 -20 -3490 -30 -654 -5 -1417 -12
-1695 -15 -278 -2 -901 -7 -1385 -10 -484 -3 -990 -7 -1125 -10 -135 -3 -729
-8 -1320 -11 -591 -4 -1088 -8 -1105 -9 -16 -1 -164 -3 -327 -3 -317 -2 -328
-4 -328 -52 0 -50 -22 -49 980 -40 514 5 1282 11 1705 14 424 3 986 8 1250 11
264 3 775 7 1135 10 360 3 939 7 1285 10 1173 10 2986 25 3705 30 1106 8 1543
16 1558 27 6 6 12 24 12 39 0 22 -6 32 -26 39 -14 6 -28 9 -32 8 -4 -1 -362
-5 -797 -8z"/>
<path d="M28255 17874 c-72 -27 -126 -92 -144 -175 -5 -24 -12 -393 -16 -820
-6 -616 -5 -784 5 -815 19 -59 56 -100 113 -129 l51 -25 567 0 c626 0 621 0
688 63 60 57 68 90 75 302 3 105 7 474 8 820 3 599 2 632 -16 665 -26 49 -55
79 -101 103 -39 22 -47 22 -615 24 -485 2 -581 0 -615 -13z m1213 -118 l37
-35 0 -463 c0 -255 -2 -620 -5 -813 -5 -322 -6 -352 -24 -378 -40 -58 -24 -57
-644 -57 -569 0 -569 0 -597 22 -55 43 -54 18 -43 868 11 862 9 832 72 871 29
18 61 19 599 19 l567 0 38 -34z"/>
<path d="M29945 17881 c-73 -18 -142 -77 -171 -146 -21 -52 -22 -86 -29 -912
-5 -685 -5 -703 15 -755 21 -58 63 -104 120 -134 33 -18 69 -19 615 -19 l580
0 47 28 c57 33 95 81 113 139 10 33 13 224 16 833 l4 790 -25 49 c-14 27 -40
61 -59 77 -72 59 -74 59 -660 58 -295 -1 -549 -4 -566 -8z m1143 -111 c18 -11
42 -34 53 -52 21 -33 21 -36 15 -816 -7 -846 -4 -809 -61 -862 l-27 -25 -569
-3 -569 -2 -43 39 -42 40 3 793 c4 883 0 837 72 886 l33 22 551 0 c532 0 552
-1 584 -20z"/>
<path d="M36870 17881 c-68 -21 -112 -57 -146 -121 -18 -34 -19 -69 -15 -845
4 -870 3 -851 56 -921 13 -17 48 -44 77 -58 l52 -26 564 0 c416 0 576 3 606
12 55 17 128 90 144 146 10 34 12 180 7 695 -9 961 -8 934 -32 987 -11 25 -36
59 -54 77 -67 63 -63 63 -678 62 -306 0 -567 -4 -581 -8z m1176 -110 c64 -39
61 -7 69 -878 l8 -791 -21 -34 c-12 -19 -33 -40 -47 -46 -19 -9 -181 -12 -595
-12 l-568 0 -32 27 c-17 14 -36 37 -41 50 -5 13 -12 383 -15 823 l-7 799 40
41 41 40 568 0 c539 0 571 -1 600 -19z"/>
<path d="M38516 17875 c-56 -20 -107 -65 -136 -121 l-25 -49 3 -560 c3 -723
10 -1021 24 -1068 15 -49 70 -112 122 -140 41 -22 45 -22 596 -25 406 -2 567
0 598 9 66 18 116 60 147 124 l28 56 -7 727 c-7 758 -10 857 -31 908 -18 44
-72 102 -119 127 -41 22 -46 22 -601 24 -459 2 -567 0 -599 -12z m1164 -103
c22 -12 43 -34 57 -63 22 -43 22 -53 30 -679 11 -956 12 -923 -13 -957 -50
-66 -24 -64 -635 -63 -526 0 -554 1 -583 19 -17 11 -40 35 -51 53 -19 32 -20
59 -29 815 -8 760 -7 784 11 815 11 18 34 43 53 55 l33 23 546 0 c509 0 549
-1 581 -18z"/>
<path d="M28218 15790 c-53 -16 -97 -51 -116 -93 -19 -39 -21 -71 -26 -412
-17 -1055 -18 -1333 -7 -1367 13 -40 64 -92 104 -107 39 -15 1245 -15 1284 0
15 5 41 22 57 37 61 57 58 19 68 951 l8 854 -21 43 c-24 50 -57 77 -113 93
-47 13 -1196 14 -1238 1z m1248 -116 l26 -25 -7 -842 c-8 -881 -8 -885 -50
-901 -9 -3 -291 -6 -626 -6 -608 0 -609 0 -630 21 l-22 22 7 736 c4 405 9 783
12 841 2 58 4 111 4 118 0 7 11 24 25 37 l24 25 606 0 606 0 25 -26z"/>
<path d="M29914 15782 c-79 -28 -129 -74 -161 -149 -14 -34 -17 -129 -24 -818
-5 -530 -4 -793 3 -820 15 -57 32 -86 74 -128 70 -68 65 -67 678 -67 l551 0
50 24 c28 12 67 41 87 64 68 76 67 63 70 845 3 894 4 836 -11 890 -17 59 -68
119 -129 149 l-47 23 -545 2 c-501 3 -549 2 -596 -15z m1156 -104 c18 -13 43
-36 54 -51 21 -29 21 -30 17 -820 -3 -747 -4 -794 -22 -828 -10 -21 -34 -47
-53 -58 -33 -21 -41 -21 -585 -21 -607 0 -587 -2 -633 62 l-23 33 4 785 c3
725 4 788 21 826 16 37 53 73 90 87 8 3 258 6 556 6 l541 1 33 -22z"/>
<path d="M36836 15785 c-45 -16 -90 -56 -106 -96 -9 -21 -11 -246 -8 -886 3
-755 6 -862 20 -893 19 -42 62 -85 101 -99 38 -15 1227 -15 1279 -1 45 13 105
77 113 122 3 18 2 413 -2 878 -10 919 -7 884 -66 938 -54 50 -61 51 -697 51
-484 0 -602 -2 -634 -14z m1248 -96 c13 -7 29 -23 35 -38 14 -38 29 -1677 15
-1714 -3 -10 -15 -22 -25 -28 -25 -13 -1223 -13 -1248 1 -10 5 -23 22 -29 37
-15 39 -24 1681 -10 1709 24 45 11 44 639 44 423 0 605 -3 623 -11z"/>
<path d="M38558 15786 c-85 -23 -154 -94 -178 -184 -7 -26 -9 -98 -6 -195 3
-83 6 -345 8 -582 1 -236 5 -522 8 -635 6 -230 11 -252 82 -321 72 -70 67 -69
682 -69 l551 0 50 24 c62 29 97 66 126 130 l21 49 -6 601 c-8 743 -14 959 -28
1014 -14 55 -84 134 -140 158 -40 18 -81 19 -583 21 -411 1 -551 -1 -587 -11z
m1138 -102 c43 -20 71 -55 83 -103 8 -28 29 -1301 25 -1526 -1 -91 -61 -155
-146 -157 -24 0 -273 0 -554 1 l-511 1 -33 23 c-54 36 -69 72 -75 178 -2 52
-7 406 -10 787 l-6 693 22 38 c12 21 38 48 58 59 35 21 45 22 574 22 477 0
543 -2 573 -16z"/>
<path d="M17039 8659 c-8 -16 -8 -28 0 -45 l11 -24 291 2 c281 3 292 4 305 23
12 18 11 24 -2 43 -15 22 -18 22 -304 22 -285 0 -289 0 -301 -21z"/>
<path d="M16821 8151 c-43 -43 -18 -71 84 -95 262 -61 554 -67 785 -16 109 24
136 34 149 59 26 48 -16 76 -84 56 -238 -72 -640 -67 -897 11 -9 3 -26 -4 -37
-15z"/>
<path d="M23325 8926 c-8 -13 -13 -30 -9 -39 10 -26 657 -447 687 -447 29 0
52 30 42 58 -3 9 -65 56 -138 104 -459 301 -534 348 -549 348 -10 0 -24 -11
-33 -24z"/>
<path d="M24619 8166 c-4 -4 -126 -12 -359 -23 -196 -10 -1217 -10 -1450 0
-493 20 -489 20 -505 7 -18 -15 -20 -54 -2 -68 19 -16 63 -20 337 -29 310 -10
1501 -11 1720 0 240 11 378 23 396 35 18 12 24 42 14 63 -9 16 -22 19 -79 19
-37 0 -70 -2 -72 -4z"/>
<path d="M17988 44980 c-643 -54 -1241 -374 -1634 -876 -208 -265 -378 -629
-444 -954 -101 -496 -34 -1019 190 -1475 299 -609 851 -1055 1509 -1219 210
-53 280 -60 551 -60 287 0 408 15 633 80 826 240 1451 915 1621 1750 35 172
45 294 41 509 -6 369 -77 659 -240 980 -125 248 -256 425 -456 621 -350 341
-805 563 -1284 628 -147 20 -356 26 -487 16z m527 -120 c476 -83 872 -287
1205 -620 339 -339 555 -770 625 -1249 22 -149 22 -444 0 -601 -81 -588 -393
-1115 -870 -1470 -576 -429 -1318 -549 -2001 -325 -328 108 -613 284 -865 535
-189 188 -301 345 -424 591 -378 763 -273 1685 268 2354 143 177 366 370 572
497 261 160 603 275 912 308 143 14 440 5 578 -20z"/>
<path d="M18007 44462 l-97 -3 6 -203 7 -203 -89 -27 c-311 -96 -516 -280
-596 -536 -19 -64 -23 -96 -23 -215 0 -127 3 -147 28 -218 36 -104 94 -193
174 -268 130 -121 268 -193 563 -294 300 -102 424 -176 471 -278 24 -54 24
-139 0 -192 -27 -59 -100 -120 -179 -147 -61 -21 -85 -23 -252 -23 -145 0
-202 4 -265 19 -114 26 -256 73 -342 111 -40 19 -73 33 -73 31 0 -1 -25 -109
-55 -240 -30 -130 -55 -245 -55 -255 0 -29 133 -85 305 -127 110 -27 299 -54
374 -54 l48 0 6 -97 c4 -54 7 -146 7 -206 l0 -108 183 1 c100 0 197 3 215 7
l33 5 -7 217 -6 216 98 28 c189 53 342 143 458 267 71 77 120 161 159 275 30
85 31 98 31 235 0 228 -46 359 -177 496 -119 126 -261 209 -512 298 -298 107
-422 165 -492 229 -99 90 -108 197 -26 288 72 80 158 104 363 103 172 -1 294
-23 462 -85 60 -22 111 -39 113 -37 1 2 27 111 58 243 48 210 53 241 40 252
-20 16 -192 70 -283 88 -41 9 -132 21 -201 27 l-126 11 -6 126 c-4 69 -7 154
-7 189 l0 62 -117 -2 c-65 -2 -162 -4 -216 -6z"/>
<path d="M13599 43552 c-642 -436 -1217 -886 -1769 -1386 -346 -313 -874 -857
-1181 -1216 -1150 -1346 -1953 -2831 -2377 -4400 -71 -260 -93 -360 -87 -382
8 -24 53 -35 71 -16 8 8 39 109 68 224 703 2743 2609 5276 5352 7112 67 45
124 89 128 98 8 22 -19 64 -42 64 -10 0 -83 -44 -163 -98z"/>
<path d="M13428 42698 c-1541 -1108 -2798 -2536 -3578 -4063 -165 -324 -213
-431 -200 -454 12 -23 40 -34 62 -26 9 4 30 39 48 78 18 40 77 160 130 267
410 822 925 1575 1595 2330 168 189 739 760 930 929 327 291 711 601 1028 831
137 100 157 118 157 142 0 25 -23 48 -48 48 -6 0 -61 -37 -124 -82z"/>
<path d="M14337 40965 c-262 -32 -488 -100 -742 -225 -243 -119 -433 -258
-630 -461 -534 -550 -753 -1297 -604 -2059 45 -225 169 -542 289 -735 175
-282 418 -533 693 -719 125 -84 385 -212 527 -260 834 -281 1747 -68 2366 551
371 370 600 844 663 1373 13 110 13 380 1 495 -118 1078 -970 1927 -2052 2044
-128 14 -376 12 -511 -4z m528 -96 c228 -24 480 -96 695 -200 231 -112 399
-229 584 -409 370 -361 590 -801 657 -1315 15 -118 15 -428 0 -530 -75 -507
-265 -905 -597 -1254 -179 -188 -382 -336 -626 -456 -740 -364 -1614 -283
-2279 211 -121 90 -304 265 -396 379 -543 671 -646 1603 -262 2367 319 634
920 1079 1614 1194 97 16 374 32 465 26 25 -1 90 -7 145 -13z"/>
<path d="M13948 40029 c-725 -674 -739 -688 -736 -714 3 -18 12 -20 106 -23
l102 -3 0 -917 c0 -701 3 -921 12 -930 9 -9 267 -12 1100 -12 1065 0 1088 0
1098 19 7 13 10 322 10 930 l0 911 119 0 c95 0 121 3 131 15 11 13 10 20 -6
40 -15 20 -1135 1066 -1282 1198 -23 20 -46 37 -52 37 -5 0 -276 -248 -602
-551z m392 -1048 c16 -30 14 -572 -2 -594 -12 -16 -40 -17 -313 -15 l-300 3
-3 300 c-1 165 0 305 3 312 3 10 72 13 304 13 287 0 301 -1 311 -19z"/>
<path d="M42088 38979 c-26 -15 -22 -55 11 -102 110 -162 396 -642 563 -947
1153 -2102 1821 -4461 1923 -6790 4 -80 8 -170 10 -200 7 -104 6 -915 -1
-1122 -8 -222 -5 -238 41 -238 12 0 28 6 34 14 18 21 26 259 26 761 0 415 -10
888 -20 940 -2 11 -7 70 -10 130 -6 118 -7 131 -30 395 -111 1256 -404 2592
-836 3807 -409 1151 -914 2188 -1569 3223 -90 142 -102 153 -142 129z"/>
<path d="M41052 38448 c-7 -7 -12 -20 -12 -31 0 -10 44 -93 99 -185 1062
-1797 1731 -3742 1986 -5777 18 -148 36 -299 40 -335 3 -36 8 -81 10 -100 6
-51 13 -138 29 -385 9 -121 18 -254 20 -295 3 -41 8 -284 12 -540 4 -282 11
-470 17 -477 5 -7 20 -13 32 -13 48 0 50 15 50 294 0 255 -12 742 -20 821 -2
22 -6 92 -10 155 -3 63 -8 135 -10 160 -3 25 -9 104 -15 175 -38 464 -127
1085 -226 1583 -334 1680 -944 3277 -1817 4757 -55 94 -107 178 -115 188 -17
20 -53 22 -70 5z"/>
<path d="M13975 35820 c-642 -47 -1238 -360 -1637 -860 -108 -135 -189 -264
-268 -425 -253 -516 -304 -1094 -145 -1644 253 -879 1009 -1528 1918 -1646
137 -17 395 -20 535 -4 892 96 1653 709 1935 1559 80 240 114 447 116 705 3
267 -33 494 -114 743 -108 328 -289 624 -534 876 -409 418 -917 654 -1500 696
-147 11 -157 11 -306 0z m350 -100 c777 -71 1448 -535 1790 -1235 102 -209
176 -456 206 -690 17 -136 15 -429 -5 -570 -157 -1107 -1107 -1919 -2221
-1900 -728 13 -1392 377 -1797 985 -132 198 -256 482 -308 703 -54 235 -73
555 -45 772 45 344 166 675 352 955 447 674 1232 1053 2028 980z"/>
<path d="M13639 34861 l-29 -29 0 -371 0 -371 -316 0 -316 0 -29 -29 -29 -29
0 -432 c0 -478 1 -482 64 -521 29 -17 55 -19 329 -19 l297 0 0 -295 c0 -328 0
-326 68 -398 60 -62 91 -67 449 -67 206 0 330 4 361 12 57 14 126 79 141 134
7 24 11 153 11 327 l0 287 278 0 c312 0 331 4 389 74 50 62 53 84 53 462 0
334 -1 349 -21 392 -13 26 -38 54 -62 70 l-40 27 -298 3 -298 3 -3 349 c-3
336 -4 350 -24 377 -11 15 -36 38 -54 51 -33 22 -34 22 -462 22 l-430 0 -29
-29z"/>
<path d="M22292 34867 c-6 -7 -22 -80 -36 -162 -80 -484 -98 -607 -92 -628 4
-17 15 -26 37 -31 17 -3 2834 -6 6258 -6 5042 0 6231 2 6245 13 14 10 29 87
76 372 64 389 69 439 44 449 -9 3 -2829 6 -6269 6 -5082 0 -6255 -2 -6263 -13z
m12448 -84 c-1 -8 -25 -162 -75 -470 l-28 -173 -6189 0 c-5890 0 -6189 1
-6184 18 2 9 25 150 51 312 26 162 49 301 51 308 3 9 1249 12 6189 12 3402 0
6185 -3 6185 -7z"/>
<path d="M9769 34227 c-74 -50 -129 -157 -129 -253 0 -70 29 -142 82 -199 178
-195 488 -86 515 180 10 99 -42 208 -91 189 -32 -12 -39 -42 -20 -89 24 -65
16 -144 -22 -197 -87 -124 -270 -113 -341 21 -28 53 -31 136 -7 186 8 18 38
54 65 79 52 48 55 56 39 87 -14 25 -49 24 -91 -4z"/>
<path d="M31205 33605 l-249 -185 -4442 0 c-3801 0 -4445 -2 -4457 -14 -7 -8
-23 -73 -35 -148 -116 -710 -106 -637 -92 -658 8 -13 339 -16 2849 -20 l2841
-5 -646 -765 c-355 -421 -650 -773 -655 -782 -19 -36 25 -77 61 -58 10 6 310
355 666 778 355 422 661 782 678 800 l31 32 1028 -2 1028 -3 -548 -405 c-301
-222 -615 -454 -698 -515 -82 -62 -340 -252 -572 -423 l-423 -312 -2815 0
-2815 0 -12 -26 c-9 -18 -9 -30 -1 -42 9 -16 204 -17 2763 -22 l2752 -5 -360
-265 c-199 -146 -364 -273 -367 -282 -9 -26 3 -56 26 -63 24 -8 28 -6 244 154
94 69 273 201 398 293 l228 168 3246 0 3245 0 -5 -22 c-3 -13 -27 -159 -54
-325 l-48 -303 -5981 0 c-5781 0 -5981 -1 -5997 -18 -22 -24 -21 -45 1 -65 17
-16 450 -17 6023 -17 4789 0 6009 3 6022 13 13 9 24 53 42 167 14 85 41 252
60 370 39 240 41 263 21 279 -9 8 -872 12 -3230 13 l-3217 3 1121 828 1120
827 615 0 c594 0 615 1 624 19 6 11 33 160 61 333 28 172 56 346 62 387 16 96
10 101 -125 101 l-99 0 192 142 c105 78 198 151 207 164 11 17 12 27 3 43 -23
44 -55 28 -315 -164z m-398 -292 c-7 -7 -201 -152 -432 -322 l-420 -311 -1025
-1 c-564 0 -1035 -2 -1047 -3 -50 -6 -43 13 44 115 215 252 253 300 253 319 0
11 -11 27 -25 36 -22 14 -28 14 -44 3 -11 -8 -97 -106 -192 -219 -94 -113
-181 -215 -193 -228 l-22 -22 -2824 0 c-1554 0 -2832 0 -2841 0 -13 0 -13 16
7 133 12 72 34 206 49 297 15 91 29 175 32 187 l5 23 4312 2 c2371 2 4325 3
4343 3 25 0 30 -3 20 -12z m433 -36 c-4 -23 -27 -163 -50 -312 -24 -148 -46
-273 -49 -277 -6 -7 -1010 -13 -1016 -6 -2 2 90 72 203 155 114 84 307 227
430 318 l224 164 121 3 c67 2 127 2 133 0 7 -2 8 -18 4 -45z"/>
<path d="M9230 33655 c-10 -12 -10 -46 0 -167 7 -84 16 -161 21 -170 6 -11 21
-18 39 -18 51 0 53 18 30 257 -5 51 -12 97 -15 103 -9 15 -61 12 -75 -5z"/>
<path d="M9699 33236 c-2 -2 -53 -7 -114 -11 -94 -5 -113 -9 -127 -27 -23 -26
-23 -33 3 -59 17 -17 29 -20 62 -15 23 3 89 8 147 12 63 4 114 12 128 20 24
16 29 53 10 72 -11 11 -99 17 -109 8z"/>
<path d="M8935 33176 c-66 -6 -126 -15 -132 -19 -20 -13 -16 -65 6 -76 22 -12
291 4 329 19 15 7 22 18 22 38 0 56 -11 58 -225 38z"/>
<path d="M9291 33004 c-22 -16 -23 -21 -17 -98 20 -261 21 -266 61 -266 13 0
30 7 39 15 15 15 15 32 2 175 -2 19 -4 61 -5 93 -1 43 -6 62 -21 77 -24 24
-29 25 -59 4z"/>
<path d="M41870 32331 c-283 -164 -519 -305 -524 -313 -24 -39 1 -61 257 -224
138 -89 356 -229 483 -312 284 -184 271 -177 300 -164 30 14 32 34 39 377 3
154 7 348 10 430 16 471 16 468 -2 487 -9 10 -23 18 -32 18 -9 0 -248 -135
-531 -299z m476 27 c-3 -73 -9 -257 -12 -408 -4 -151 -9 -326 -13 -388 l-6
-114 -168 109 c-551 356 -657 425 -661 431 -4 7 841 501 858 502 5 0 6 -59 2
-132z"/>
<path d="M10653 32549 c-66 -25 -116 -79 -104 -111 10 -28 55 -36 79 -15 66
57 171 67 246 23 99 -58 128 -186 64 -282 -47 -68 -104 -97 -185 -92 -52 3
-71 10 -114 40 -57 39 -84 40 -102 1 -9 -20 -6 -28 23 -58 76 -79 219 -103
328 -55 70 30 146 114 167 182 34 117 10 214 -73 298 -90 89 -210 115 -329 69z"/>
<path d="M10924 30195 c-92 -16 -134 -30 -215 -71 -71 -35 -142 -86 -201 -141
l-36 -35 -63 22 c-150 51 -291 31 -387 -55 -82 -73 -95 -113 -103 -295 -5
-138 -9 -166 -39 -255 -18 -55 -35 -130 -37 -166 -10 -126 28 -191 196 -333
202 -171 279 -204 504 -213 l137 -6 0 -36 c2 -108 -1 -336 -5 -401 -3 -41 -7
-142 -10 -225 -12 -320 -36 -460 -102 -593 l-38 -75 -190 -48 c-303 -75 -536
-160 -800 -292 -171 -85 -231 -119 -455 -261 -296 -187 -450 -306 -645 -501
-559 -558 -921 -1291 -1021 -2070 -16 -120 -18 -219 -19 -690 0 -543 5 -663
41 -1055 81 -889 267 -1768 450 -2133 73 -146 177 -272 289 -352 l60 -44 35
-178 c24 -126 34 -208 34 -279 l1 -101 -51 -84 c-69 -112 -98 -172 -126 -255
-21 -63 -23 -86 -22 -254 0 -173 2 -192 31 -302 100 -378 338 -616 529 -529
152 69 233 312 234 700 l0 153 37 -32 c39 -34 36 -34 162 -14 l44 7 -7 -54
c-3 -30 -20 -173 -36 -319 -17 -146 -41 -362 -55 -480 -14 -118 -27 -235 -30
-260 -6 -60 -53 -492 -60 -555 -16 -140 -46 -440 -59 -595 -36 -407 -73 -1147
-95 -1895 -17 -564 -21 -1333 -8 -1890 4 -192 9 -366 11 -385 3 -19 7 -96 11
-170 6 -137 31 -476 40 -540 11 -80 16 -127 40 -380 31 -328 65 -738 100
-1215 3 -38 8 -97 10 -130 3 -33 7 -91 10 -130 54 -713 56 -728 88 -799 38
-82 115 -147 210 -180 14 -4 17 -13 13 -33 -3 -16 -13 -90 -22 -165 -10 -75
-20 -142 -24 -148 -5 -8 -26 -5 -69 10 -108 36 -164 3 -235 -138 -120 -239
-221 -671 -197 -840 11 -71 21 -90 76 -144 108 -104 300 -156 665 -178 96 -6
245 -17 330 -25 85 -9 225 -22 310 -30 204 -20 286 -26 470 -39 462 -33 765
-4 1006 94 94 39 162 102 182 167 16 55 17 182 1 231 -38 115 -133 198 -309
267 -193 76 -437 211 -606 338 -60 44 -139 117 -199 183 -232 254 -269 279
-379 257 -28 -6 -53 -9 -55 -7 -2 2 -6 44 -9 94 l-5 90 97 0 c110 0 149 12
188 59 33 39 36 61 43 416 3 154 8 305 10 335 2 30 6 123 10 205 3 83 8 182
10 220 3 39 10 144 15 235 53 848 135 1598 230 2105 170 905 280 1558 475
2825 46 305 92 598 100 650 8 52 46 298 85 545 39 248 80 502 91 565 11 63 40
249 64 414 41 284 51 326 77 310 51 -31 376 -1614 592 -2884 88 -511 122 -755
151 -1070 8 -91 17 -190 20 -220 5 -52 48 -642 60 -815 3 -44 7 -109 10 -145
3 -36 7 -101 10 -145 3 -44 9 -150 15 -235 6 -85 19 -310 30 -500 11 -190 22
-374 25 -410 2 -36 7 -112 10 -170 6 -109 13 -239 20 -350 2 -36 7 -114 10
-175 5 -106 8 -159 20 -385 3 -58 8 -130 10 -160 2 -30 7 -113 10 -185 7 -151
23 -440 31 -570 6 -98 21 -134 67 -169 24 -18 45 -21 148 -24 65 -2 119 -7
119 -12 0 -8 -17 -137 -25 -195 -3 -16 -7 -58 -11 -92 -4 -35 -10 -63 -14 -63
-3 0 -28 7 -54 16 -99 34 -161 -1 -223 -128 -110 -222 -193 -565 -193 -792 0
-132 14 -170 82 -233 113 -103 282 -146 643 -163 186 -9 552 -32 705 -45 481
-40 951 -42 1155 -6 150 27 257 59 361 109 139 68 182 145 172 307 -12 180
-116 282 -383 375 -125 44 -375 175 -530 278 -111 73 -155 112 -305 263 -96
97 -188 184 -205 192 -78 38 -163 27 -226 -30 l-37 -33 -6 67 c-4 38 -9 94
-12 126 l-6 57 129 0 c206 1 243 30 257 205 4 44 9 94 11 110 8 49 98 1055
135 1505 6 69 12 150 15 180 23 275 55 675 70 905 4 44 8 100 10 125 6 60 47
681 60 910 3 47 7 117 10 155 2 39 7 120 10 180 3 61 7 137 10 170 2 33 7 137
10 230 4 94 8 186 10 205 21 206 30 1391 11 1580 -3 25 -7 86 -11 135 -29 420
-135 1071 -267 1645 -131 570 -289 1131 -574 2031 -145 461 -184 600 -238 864
-34 167 -86 436 -86 448 0 3 19 7 42 9 l41 3 19 65 c83 289 201 776 269 1109
12 63 24 110 25 105 2 -7 28 -239 50 -459 14 -130 37 -297 50 -365 44 -212
126 -359 263 -466 l56 -44 52 -357 c68 -461 100 -691 108 -777 5 -50 47 -188
152 -500 80 -237 153 -441 162 -453 9 -13 35 -32 58 -44 77 -38 169 -4 204 77
24 53 24 55 -37 254 -24 80 -44 153 -44 162 0 28 18 31 63 9 103 -50 240 -193
362 -377 85 -129 130 -171 193 -180 52 -8 113 16 138 54 33 51 34 87 3 245
-16 84 -47 247 -70 362 -48 253 -67 315 -117 380 -21 28 -116 113 -211 191
-95 77 -181 154 -192 171 -10 16 -29 66 -40 109 -19 68 -22 108 -23 284 -1
124 4 243 12 300 11 74 11 105 2 138 -11 42 -10 44 29 88 50 57 79 133 96 249
23 151 25 213 32 697 5 403 -5 918 -22 1119 -2 24 -6 96 -10 159 -23 427 -72
804 -140 1100 -161 692 -468 1386 -858 1934 -193 271 -471 573 -697 758 -273
222 -676 454 -940 541 -232 77 -640 148 -985 170 -33 3 -84 13 -114 23 l-53
19 6 50 c3 28 11 134 18 236 l11 186 81 7 c98 8 181 26 305 68 107 35 154 71
175 133 17 47 14 76 -23 270 -16 83 -34 177 -40 210 -6 33 -14 69 -17 81 -4
17 1 24 26 34 63 26 77 86 35 154 l-24 40 69 73 c38 40 82 96 97 125 24 46 28
65 28 138 0 161 -66 296 -156 320 -78 21 -150 -33 -188 -140 -10 -28 -20 -52
-23 -55 -2 -2 -14 63 -26 146 -37 246 -93 392 -198 507 -64 71 -131 116 -222
149 -134 49 -358 66 -508 38z m371 -100 c98 -17 205 -69 264 -127 103 -101
159 -233 196 -462 l6 -39 -31 26 c-91 77 -218 46 -285 -70 l-30 -52 -77 -1
c-43 0 -78 2 -78 4 0 2 7 23 15 46 33 93 11 184 -61 252 -107 101 -265 128
-594 104 -100 -8 -117 -7 -128 7 -19 22 -7 40 85 127 112 106 219 164 348 190
66 13 285 10 370 -5z m-935 -209 c26 -10 34 -18 32 -32 -16 -87 6 -136 76
-166 38 -17 58 -19 121 -14 279 23 396 17 490 -25 60 -26 87 -53 107 -106 16
-40 16 -46 0 -88 -13 -32 -31 -54 -66 -79 -28 -20 -52 -46 -56 -61 -8 -31 23
-81 70 -115 28 -20 36 -34 42 -70 17 -118 68 -385 90 -474 34 -138 49 -165
109 -196 46 -23 59 -25 195 -25 113 1 168 6 248 23 57 13 109 25 116 28 9 3
19 -26 34 -93 64 -292 64 -291 -130 -347 -119 -34 -191 -46 -289 -48 -139 -2
-210 17 -273 72 -45 40 -67 89 -106 235 -35 134 -78 210 -173 305 -101 101
-170 125 -394 135 -269 12 -307 27 -529 217 -151 130 -163 176 -100 384 34
111 37 132 40 262 2 136 3 142 32 189 43 69 112 103 208 102 39 0 87 -6 106
-13z m1728 -449 c34 -36 54 -96 59 -177 7 -93 -4 -122 -82 -214 l-58 -69 -30
59 c-28 56 -77 187 -77 207 0 5 6 7 14 4 19 -7 56 20 56 42 0 33 30 118 51
145 25 32 39 33 67 3z m-415 -17 c14 -11 38 -46 54 -78 25 -52 28 -67 28 -162
0 -116 -17 -171 -70 -222 -83 -83 -191 24 -203 200 -12 189 96 337 191 262z
m-288 -238 c1 -241 154 -405 310 -333 65 30 110 92 149 206 6 15 16 0 50 -70
24 -50 57 -114 75 -144 18 -29 31 -55 29 -56 -2 -1 -26 -14 -55 -29 -28 -14
-54 -29 -57 -34 -2 -4 -6 -40 -7 -79 l-3 -72 -41 -10 c-124 -31 -312 -46 -380
-31 -22 5 -48 18 -57 30 -25 31 -93 344 -128 594 -7 43 -16 66 -36 87 l-28 29
90 0 89 0 0 -88z m-529 -582 c55 -31 130 -109 170 -177 14 -23 39 -93 55 -154
62 -236 123 -308 298 -352 l54 -14 -2 -79 c-2 -87 -5 -129 -22 -316 -6 -70 -9
-133 -6 -141 3 -8 36 -25 74 -37 84 -27 155 -67 217 -121 l47 -42 -43 -19
c-166 -76 -362 -128 -585 -155 -115 -15 -452 -8 -552 10 -51 10 -98 20 -102
23 -5 3 25 54 66 114 193 278 223 401 241 974 4 111 8 221 9 246 2 25 4 96 4
158 1 82 4 112 14 112 6 0 35 -13 63 -30z m1392 -4142 c21 -21 14 -42 -59
-174 -235 -424 -498 -801 -808 -1159 -126 -145 -391 -411 -521 -524 -78 -67
-100 -81 -124 -79 -20 2 -32 10 -38 28 -8 22 -1 31 74 99 161 146 505 498 612
626 274 329 518 688 730 1073 61 109 71 122 95 122 15 0 32 -5 39 -12z m-2904
-230 c7 -12 7 -29 -2 -60 -116 -410 -182 -785 -216 -1228 -16 -202 -14 -798 3
-980 6 -63 13 -142 16 -175 3 -33 14 -150 25 -260 16 -171 36 -389 55 -605 2
-30 7 -95 10 -145 3 -49 8 -114 11 -142 l5 -53 55 0 c32 0 54 -4 54 -11 0 -9
-34 -299 -75 -644 -2 -22 -11 -98 -20 -170 -8 -71 -17 -146 -19 -165 -3 -19
-17 -141 -32 -270 -14 -129 -30 -239 -35 -244 -12 -14 -104 185 -129 279 -11
44 -34 203 -50 354 l-29 274 45 51 c49 54 90 127 120 216 36 105 24 345 -67
1310 -22 234 -43 504 -47 600 -23 562 12 1060 109 1545 47 236 118 505 140
531 16 19 59 14 73 -8z m5501 -3509 c85 -29 183 -92 209 -137 18 -32 18 -41 5
-185 -28 -322 -12 -531 52 -676 27 -61 48 -83 224 -224 83 -67 163 -135 179
-152 52 -54 73 -120 131 -420 31 -159 63 -326 71 -369 19 -95 11 -126 -35
-126 -33 0 -72 36 -111 101 -57 94 -150 210 -244 304 -149 148 -250 194 -327
148 -29 -17 -59 -67 -59 -98 0 -10 23 -91 50 -180 28 -89 50 -171 50 -180 0
-44 -57 -70 -93 -42 -9 7 -76 188 -157 427 -123 361 -142 427 -150 510 -5 52
-37 277 -70 500 -96 640 -94 627 -81 671 20 67 82 124 161 150 38 13 117 3
195 -22z m-1755 -148 l385 -6 8 -55 c23 -149 131 -662 166 -785 22 -77 96
-320 166 -540 541 -1710 768 -2736 835 -3775 11 -166 14 -900 5 -1103 -3 -67
-10 -246 -15 -397 -10 -262 -14 -364 -25 -545 -3 -44 -12 -199 -20 -345 -8
-146 -17 -296 -20 -335 -3 -38 -12 -171 -20 -295 -21 -318 -52 -733 -75 -1025
-36 -445 -70 -858 -80 -960 -5 -55 -12 -134 -15 -175 -3 -41 -10 -120 -15
-175 -6 -55 -19 -199 -30 -320 -44 -475 -61 -630 -72 -642 -8 -10 -146 -13
-689 -13 l-679 0 -13 22 c-10 16 -18 93 -26 263 -7 132 -14 276 -17 320 -3 44
-20 366 -39 715 -19 349 -37 667 -40 705 -4 66 -7 106 -20 330 -22 378 -55
920 -60 965 -2 30 -7 98 -10 150 -15 248 -58 813 -85 1115 -30 319 -94 749
-206 1375 -19 107 -42 233 -50 280 -72 405 -268 1398 -349 1765 -67 302 -90
392 -146 558 -28 83 -47 157 -44 170 4 19 22 189 40 392 8 87 28 183 54 257
53 153 174 330 290 422 66 53 78 74 61 106 -25 46 -96 7 -215 -121 -120 -129
-215 -305 -255 -473 -11 -44 -28 -164 -37 -265 -17 -171 -19 -184 -39 -192
-12 -4 -25 -12 -28 -18 -4 -6 -18 -102 -32 -213 -34 -284 -68 -524 -115 -803
-55 -331 -108 -672 -248 -1580 -234 -1516 -355 -2246 -491 -2945 -88 -455
-151 -964 -215 -1735 -15 -182 -41 -596 -50 -815 -4 -74 -8 -157 -10 -184 -2
-28 -9 -221 -16 -429 -10 -295 -16 -383 -27 -393 -11 -12 -110 -14 -560 -14
l-547 0 -50 24 c-54 25 -100 71 -122 123 -16 39 -30 193 -83 903 -22 294 -43
560 -45 590 -3 30 -17 190 -30 355 -14 165 -37 410 -51 545 -35 339 -52 533
-59 680 -3 69 -8 143 -10 165 -20 183 -27 1434 -12 2170 5 220 10 411 11 425
2 14 7 131 11 260 4 129 9 253 10 275 1 22 6 110 9 195 4 85 9 182 11 215 2
33 7 105 10 160 9 171 35 548 40 585 2 19 6 62 10 95 12 131 67 655 95 905 16
146 32 285 34 310 3 25 28 243 56 485 l50 440 30 30 c42 43 47 80 18 135 l-24
45 67 570 c37 314 80 674 94 800 15 127 29 242 32 258 l6 27 1621 -1 c891 -1
1794 -5 2006 -8z m-4191 -821 c39 -420 66 -517 227 -787 48 -79 85 -146 82
-148 -2 -2 -47 -11 -101 -20 l-97 -17 -67 51 c-69 51 -110 63 -131 38 -7 -8
-11 -89 -11 -227 1 -293 -19 -429 -82 -557 -17 -35 -45 -74 -63 -88 -116 -88
-293 65 -391 338 -50 139 -68 249 -68 407 0 120 3 144 27 215 15 44 51 121 80
170 75 127 85 148 96 207 13 65 -1 208 -35 372 -14 66 -24 121 -22 122 1 1 27
-4 57 -12 114 -29 264 -8 405 60 46 22 72 29 76 22 3 -6 12 -72 18 -146z
m5011 -10837 c0 -81 21 -233 50 -363 l20 -95 -27 -55 c-21 -40 -41 -62 -77
-84 -43 -27 -56 -30 -120 -29 -163 3 -356 79 -473 185 -38 35 -82 72 -98 83
l-28 21 22 174 c12 96 24 187 27 203 l6 27 349 0 349 0 0 -67z m382 -247 c35
-30 97 -93 138 -141 72 -83 160 -162 265 -237 145 -103 441 -260 600 -318 251
-91 320 -161 318 -321 -2 -97 -18 -130 -85 -168 -70 -40 -241 -95 -363 -118
-159 -28 -709 -26 -1125 6 -69 6 -168 13 -220 16 -52 3 -106 8 -120 10 -14 2
-90 7 -170 10 -272 11 -456 26 -548 45 -152 31 -261 91 -289 159 -55 130 100
798 215 924 40 44 188 -20 319 -137 114 -101 243 -161 413 -192 169 -30 252
-12 341 76 67 66 86 115 99 255 11 117 23 151 59 170 51 28 84 19 153 -39z
m-4123 -93 c8 -76 13 -142 13 -148 -9 -85 -33 -247 -41 -267 -17 -44 -70 -96
-117 -114 -119 -45 -418 48 -533 168 -25 27 -63 60 -83 74 -31 22 -37 32 -33
52 2 14 14 103 27 199 l23 173 365 0 366 0 13 -137z m298 -185 c31 -29 94 -97
141 -151 101 -118 175 -181 342 -292 169 -113 341 -206 483 -261 242 -94 320
-182 302 -338 -11 -103 -32 -125 -165 -178 -178 -70 -371 -93 -705 -84 -137 4
-263 9 -280 10 -16 2 -73 7 -125 10 -80 6 -389 34 -550 51 -125 13 -266 25
-365 30 -328 17 -491 54 -602 134 -66 48 -77 78 -70 191 19 292 178 775 262
796 45 11 178 -62 275 -151 67 -62 107 -89 185 -126 192 -92 378 -118 480 -69
108 53 167 148 180 291 13 147 39 189 117 189 34 0 47 -8 95 -52z"/>
<path d="M12985 20286 c-40 -29 -12 -242 52 -406 83 -209 243 -346 452 -387
l84 -17 18 23 c22 28 23 32 6 55 -8 11 -40 23 -84 31 -234 45 -389 223 -438
501 -8 48 -15 108 -15 135 0 38 -4 51 -22 63 -27 19 -29 19 -53 2z"/>
<path d="M10262 20208 c-6 -7 -28 -54 -50 -103 -108 -251 -262 -435 -443 -530
-74 -39 -200 -75 -261 -75 -55 0 -78 -15 -78 -50 0 -46 26 -54 127 -40 292 39
535 236 703 571 78 157 89 193 65 219 -21 23 -48 26 -63 8z"/>
<path d="M12788 7760 c-34 -27 -18 -67 31 -80 74 -20 518 -83 796 -114 664
-74 1386 -68 1753 15 72 16 89 41 58 84 -13 18 -18 19 -87 6 -280 -49 -548
-66 -934 -57 -165 4 -320 9 -345 11 -25 3 -130 12 -235 20 -282 23 -758 84
-968 124 -39 7 -52 6 -69 -9z"/>
<path d="M9072 7498 c-21 -21 -15 -67 11 -78 50 -21 648 -103 977 -134 30 -3
116 -11 190 -18 184 -17 903 -17 1030 0 158 21 302 54 322 74 22 22 23 30 0
57 l-17 22 -125 -25 c-236 -47 -512 -62 -875 -46 -422 18 -881 64 -1293 131
-210 33 -204 33 -220 17z"/>
</g>
</svg>
